<svg version="1.1" xmlns="http://www.w3.org/2000/svg" xmlns:xlink="http://www.w3.org/1999/xlink" width="218.09465" height="58.39964" viewBox="0,0,218.09465,58.39964"><g transform="translate(-130.88826,-150.80018)"><g data-paper-data="{&quot;isPaintingLayer&quot;:true}" fill="none" fill-rule="nonzero" stroke-width="8" stroke-linecap="round" stroke-linejoin="miter" stroke-miterlimit="10" stroke-dasharray="" stroke-dashoffset="0" style="mix-blend-mode: normal"><path d="M263.3385,205.17984l10.82452,-46.30346l27.20008,-0.3238" stroke="#0036ff"/><path d="M269.67011,180.8226l24.49444,0.03813" stroke="#0036ff"/><path d="M189.39144,156.29645l-9.90009,46.72843" stroke="#e500ff"/><path d="M192.68481,203.31553l6.73206,-27.72026" stroke="#e500ff"/><path d="M197.43686,187.07938c0,0 4.25632,-10.00784 13.09151,-9.61287c10.52041,0.32869 3.14464,26.64103 3.14464,26.64103" stroke="#e500ff"/><path d="M303.73135,205.19982l5.54405,-34.97367" stroke="#0036ff"/><path d="M343.16514,200.36511c0,0 -4.86734,5.69069 -12.587,4.27987c-9.00982,-1.6466 -10.96051,-9.46688 -11.05527,-15.05975c-0.10795,-6.37169 4.01244,-15.12846 13.50192,-15.68016c6.96133,-0.40472 12.9297,5.34623 11.98891,12.8843c-0.03918,0.31392 -23.91888,0.91451 -23.91888,0.91451" stroke="#0036ff"/><g stroke="#e500ff"><path d="M134.88826,203.6089l15.01955,-48.43806"/><path d="M152.11656,154.80018c0,0 26.79341,1.17124 22.58923,12.52373c-4.20418,11.35249 -30.16131,7.92306 -30.16131,7.92306"/></g><path d="M235.50671,157.51573l-9.90009,46.72843" stroke="#e500ff"/><path d="M249.50155,204.04567l-17.07947,-16.98827l22.4986,-10.60029" stroke="#e500ff"/></g></g></svg>